<?xml version="1.0" encoding="UTF-8"?>
<svg xmlns="http://www.w3.org/2000/svg" xmlns:xlink="http://www.w3.org/1999/xlink" width="30px" height="27px" viewBox="0 0 30 27" version="1.1">
<g id="surface1">
<path style=" stroke:none;fill-rule:nonzero;fill:rgb(40%,30%, 5%);fill-opacity:1;" d="M 14.5625 8.457031 C 14.707031 8.441406 14.855469 8.4375 15 8.4375 C 17.761719 8.4375 20 10.65625 20 13.5 C 20 16.296875 17.761719 18.5625 15 18.5625 C 12.191406 18.5625 10 16.296875 10 13.5 C 10 13.351562 10.003906 13.203125 10.019531 13.058594 C 10.503906 13.292969 11.066406 13.5 11.667969 13.5 C 13.503906 13.5 15 11.988281 15 10.125 C 15 9.519531 14.796875 8.949219 14.5625 8.457031 Z M 25.03125 5.9375 C 27.46875 8.226562 29.097656 10.921875 29.871094 12.851562 C 30.042969 13.269531 30.042969 13.730469 29.871094 14.148438 C 29.097656 16.03125 27.46875 18.726562 25.03125 21.0625 C 22.578125 23.371094 19.207031 25.3125 15 25.3125 C 10.792969 25.3125 7.421875 23.371094 4.96875 21.0625 C 2.53125 18.726562 0.902344 16.03125 0.128906 14.148438 C -0.0429688 13.730469 -0.0429688 13.269531 0.128906 12.851562 C 0.902344 10.921875 2.53125 8.226562 4.96875 5.9375 C 7.421875 3.628906 10.792969 1.6875 15 1.6875 C 19.207031 1.6875 22.578125 3.628906 25.03125 5.9375 Z M 15 5.90625 C 10.859375 5.90625 7.5 9.308594 7.5 13.5 C 7.5 17.691406 10.859375 21.09375 15 21.09375 C 19.140625 21.09375 22.5 17.691406 22.5 13.5 C 22.5 9.308594 19.140625 5.90625 15 5.90625 Z M 15 5.90625 "/>
</g>
</svg>
